<svg version="1.1" id="Layer_1" xmlns="http://www.w3.org/2000/svg" xmlns:xlink="http://www.w3.org/1999/xlink" x="0px" y="0px"
	 width="100%" viewBox="0 0 500 500" enable-background="new 0 0 500 500" xml:space="preserve">
<path fill="#FFFFFF" opacity="1.000000" stroke="none" 
	d="
M234.000000,501.000000 
	C156.000015,501.000000 78.500038,501.000000 1.000041,501.000000 
	C1.000028,334.333405 1.000028,167.666779 1.000014,1.000131 
	C167.666565,1.000087 334.333130,1.000087 500.999756,1.000044 
	C500.999847,167.666519 500.999847,334.333038 500.999939,500.999786 
	C412.166656,501.000000 323.333344,501.000000 234.000000,501.000000 
M77.747398,216.225525 
	C77.425362,216.380737 77.295715,216.634171 76.958672,217.557617 
	C71.492744,222.607376 66.120087,227.730499 63.670727,234.622986 
	C64.926079,236.232834 65.409668,237.859909 66.089012,239.400681 
	C66.487068,240.303497 67.197105,241.068756 67.829262,242.839905 
	C67.375160,251.620255 69.043320,259.928589 73.328506,267.660767 
	C79.950951,279.610260 89.234840,288.188477 103.380142,291.795197 
	C103.402153,294.410797 103.646774,297.047028 103.406914,299.638397 
	C102.462517,309.841339 101.365784,320.030243 100.286736,330.605042 
	C104.006119,330.907959 107.724640,331.210785 111.883224,331.549469 
	C111.883224,327.182831 111.770721,323.072083 111.906487,318.969543 
	C112.195381,310.239563 112.613281,301.513855 113.867752,292.880829 
	C120.778221,291.534912 128.300934,291.491547 134.479019,288.587524 
	C150.096756,281.246307 160.949203,269.588837 162.562424,250.685181 
	C163.049194,250.879120 163.757385,250.931946 163.985901,251.290482 
	C165.240234,253.258499 166.377045,255.301392 167.554214,257.318573 
	C168.089691,257.226135 168.625168,257.133698 169.160645,257.041260 
	C169.412354,255.102921 170.214767,253.045288 169.825058,251.245834 
	C167.547470,240.728775 166.672897,229.547745 157.077667,221.446213 
	C156.721832,221.279938 156.366013,221.113678 156.006149,221.003082 
	C156.006149,221.003082 156.050476,220.969147 156.082626,220.265411 
	C152.524658,216.236649 148.966705,212.207886 145.712677,207.381653 
	C145.712677,206.277725 145.712677,205.173798 145.712677,202.854218 
	C148.517380,205.794022 150.595856,207.972610 153.010162,210.503189 
	C153.874207,208.950653 154.537842,207.758224 155.618561,205.816376 
	C157.494675,210.325089 159.088623,214.155701 160.682571,217.986298 
	C161.045227,217.965363 161.407883,217.944412 161.770523,217.923477 
	C161.982178,215.561859 162.193832,213.200256 162.466248,210.160828 
	C164.020859,212.990997 165.181061,215.103165 166.341263,217.215317 
	C166.700821,217.091446 167.060379,216.967575 167.419937,216.843704 
	C167.750000,215.267303 168.080063,213.690887 168.707291,210.695175 
	C170.162109,215.370544 171.195190,218.690582 172.266769,222.134323 
	C173.644211,221.325684 174.437057,220.860245 175.258331,220.378113 
	C176.514084,222.515640 177.634857,224.423401 178.755615,226.331177 
	C179.248062,226.007797 179.740524,225.684402 180.232971,225.361023 
	C181.101349,210.344345 173.059982,201.382980 158.717133,196.148499 
	C163.512375,195.021759 168.135818,193.799149 172.107727,194.908737 
	C176.916168,196.252014 180.081955,195.522812 182.927963,191.710754 
	C182.292023,190.666931 181.647110,189.608383 181.076401,188.671631 
	C182.678070,187.998352 184.009842,187.438538 185.341614,186.878723 
	C185.305344,186.405640 185.269089,185.932556 185.232819,185.459473 
	C183.317642,184.851013 181.402481,184.242554 179.557114,183.656265 
	C180.405899,182.635651 181.271759,181.594498 182.137604,180.553360 
	C181.954742,180.042511 181.771866,179.531662 181.589005,179.020813 
	C168.892868,180.869858 156.196732,182.718887 143.834198,184.519333 
	C142.815887,179.267639 152.189896,183.358673 151.036545,177.473236 
	C154.246170,176.540878 157.699097,175.537842 162.135101,174.249222 
	C160.171997,173.224274 159.409119,172.825974 158.708511,172.460175 
	C163.425430,170.700195 169.173706,171.267853 172.109314,165.571640 
	C171.116592,164.831924 170.212692,164.158386 169.652924,163.741287 
	C173.128403,161.913376 176.504227,160.137863 179.880066,158.362350 
	C179.761429,157.863144 179.642776,157.363937 179.524124,156.864746 
	C177.171097,156.453583 174.818069,156.042435 172.478516,155.633636 
	C172.671036,154.591827 172.879959,153.461304 173.311386,151.126770 
	C165.793686,154.055161 159.198013,156.624420 151.280365,159.708618 
	C154.150955,154.537521 156.428207,150.435257 158.675735,146.386566 
	C157.323547,146.080963 155.924835,145.703400 154.503326,145.457642 
	C152.254059,145.068741 149.248169,143.683456 147.866531,144.627792 
	C143.189590,147.824432 137.700653,150.387573 135.851562,156.679688 
	C134.929474,159.817383 133.065018,162.678131 131.077728,165.102982 
	C130.886826,164.923981 130.695908,164.744965 130.408798,163.833008 
	C130.501236,155.081192 126.497902,148.904999 118.450752,144.393799 
	C117.993874,147.034866 117.166359,149.070282 117.422043,150.959076 
	C117.847832,154.104523 119.131149,157.126923 119.690125,160.265823 
	C119.845901,161.140579 118.724182,162.242828 117.739365,164.077469 
	C116.198151,157.632339 115.039688,152.194138 113.551834,146.847595 
	C112.925156,144.595657 111.660744,142.307907 109.313721,145.744339 
	C107.185364,144.100021 105.190994,142.336594 102.965248,140.942612 
	C101.992401,140.333313 100.314377,139.961349 99.361389,140.387299 
	C97.131851,141.383804 95.146973,142.927704 92.450706,144.638474 
	C92.374367,145.168350 92.138199,146.807678 91.904846,148.427444 
	C93.713913,148.979721 95.559906,149.251266 97.088844,150.096405 
	C98.473366,150.861740 99.512009,152.252777 100.703156,153.367935 
	C96.919922,156.878662 102.646523,157.251694 102.203339,159.859482 
	C102.041855,159.997879 101.880371,160.136261 101.046494,160.074478 
	C98.263763,158.422943 95.481033,156.771408 92.115112,154.773743 
	C91.997261,156.803726 91.938156,157.821808 91.873253,158.939697 
	C89.026314,158.939697 86.443977,158.939697 83.861641,158.939697 
	C83.714577,159.385498 83.567505,159.831284 83.420441,160.277084 
	C86.166801,162.071609 88.997711,163.753311 91.617409,165.716827 
	C92.648621,166.489746 93.208069,167.892105 94.038574,168.970688 
	C94.038574,168.970688 94.097015,168.937134 93.557816,169.598587 
	C91.208519,168.395126 88.935173,167.000580 86.493332,166.029938 
	C82.086853,164.278305 77.684128,162.036774 73.084366,161.389954 
	C68.679359,160.770523 63.837608,161.220673 59.693577,163.915131 
	C61.957554,166.022781 63.606075,167.557465 65.551773,169.368805 
	C67.268143,168.767258 69.793175,166.898087 71.527107,167.461899 
	C76.429482,169.055954 81.777733,169.646408 86.099648,172.856964 
	C87.285461,173.737854 88.552719,174.509094 89.752762,175.310715 
	C88.694565,176.141418 87.768929,176.868073 86.481804,177.878494 
	C89.369812,179.840210 91.799065,181.490295 94.228310,183.140396 
	C88.279686,181.771729 83.116951,179.053955 77.618896,177.640533 
	C72.032265,176.204346 66.135277,176.161621 60.046494,180.627197 
	C62.680981,181.442566 64.156944,181.899384 65.498856,182.314713 
	C64.964424,183.495789 64.423317,184.691620 63.656055,186.387238 
	C65.604912,186.387238 66.733849,186.387238 67.719864,186.387238 
	C67.001564,188.353531 66.381805,190.050064 65.762054,191.746613 
	C66.119270,191.974777 66.476486,192.202942 66.833702,192.431107 
	C68.365692,191.344223 69.897682,190.257339 71.634651,189.025040 
	C71.858269,190.750778 72.053528,192.257645 72.310318,194.239380 
	C74.968796,193.371124 77.246025,192.491699 79.595642,191.899445 
	C81.798470,191.344177 84.330154,190.267365 86.276398,190.862167 
	C92.158768,192.659927 97.826996,195.158386 103.191391,197.787125 
	C103.066345,197.925339 102.941292,198.063568 101.953270,198.155426 
	C95.517815,198.101608 89.051590,197.630478 82.654884,198.102188 
	C75.075027,198.661133 68.166191,201.136032 63.479958,208.457687 
	C64.907013,208.822906 65.853546,209.065140 66.604576,209.257339 
	C66.028267,211.295731 65.528793,213.062378 65.029320,214.829010 
	C65.396179,215.059952 65.763039,215.290894 66.129906,215.521835 
	C67.636543,214.382812 69.143181,213.243805 71.441048,211.506638 
	C71.701065,212.434097 72.011436,213.541214 71.935966,213.272003 
	C75.971565,211.255890 79.202087,209.641983 82.875893,208.847015 
	C81.285965,211.302689 79.696037,213.758362 78.082047,216.102600 
	C78.082047,216.102600 78.194801,216.119354 77.747398,216.225525 
M346.754883,256.852081 
	C346.455872,260.373627 344.213593,264.216095 349.224060,267.828522 
	C351.861694,260.134308 352.056488,251.310898 361.334595,248.002228 
	C360.945221,247.530075 360.555878,247.057922 360.166534,246.585754 
	C358.413025,246.961044 356.659485,247.336334 354.809906,246.807510 
	C354.568176,241.428391 350.304718,244.900879 347.936615,242.985184 
	C345.531647,242.615616 343.126678,242.246033 340.813690,241.086517 
	C344.247498,228.770264 347.711395,216.462280 351.103516,204.134552 
	C353.069061,196.991394 356.068268,189.959457 353.936005,182.235687 
	C344.734222,182.235687 335.633911,182.235687 326.291870,182.235687 
	C326.291870,186.217270 326.291870,189.951721 326.291870,194.103348 
	C330.902832,194.103348 335.318024,194.103348 339.656921,194.103348 
	C339.785370,194.843704 339.962219,195.203247 339.881012,195.489578 
	C335.351440,211.454971 330.800293,227.414261 325.988159,243.736404 
	C325.949036,244.740372 325.909882,245.744324 325.702942,247.704300 
	C325.702942,250.422256 325.702942,253.140198 325.702942,255.976395 
	C328.627258,255.976395 330.757874,255.976395 332.996582,256.896271 
	C332.996582,260.724243 332.996582,264.552216 332.996582,268.380219 
	C333.766022,268.450348 334.535431,268.520508 335.304871,268.590668 
	C338.162140,264.970825 336.949646,260.105621 339.054474,256.006866 
	C341.612305,256.025055 344.170135,256.043243 346.754883,256.852081 
M206.282608,272.795380 
	C205.890762,271.909302 205.571274,270.981628 205.090820,270.146515 
	C204.285919,268.747559 203.378357,267.407715 202.513992,266.042969 
	C201.439987,267.230957 200.083664,268.269379 199.356842,269.641296 
	C198.207825,271.810089 197.480835,274.202484 196.575256,276.500244 
	C196.152924,276.371063 195.730591,276.241913 195.308273,276.112732 
	C195.553314,271.515472 199.207260,266.811493 195.000992,260.936951 
	C193.257156,266.144562 191.291473,270.092133 190.819321,274.210907 
	C190.571915,276.369171 192.550354,279.238647 194.330383,280.945557 
	C195.028732,281.615234 199.084076,280.499725 199.617493,279.306335 
	C201.263824,275.623138 204.012039,275.914062 207.093292,276.734039 
	C208.192764,277.958130 209.292236,279.182220 210.391693,280.406342 
	C211.074341,279.023560 212.237930,277.680573 212.356110,276.251129 
	C212.859055,270.168213 215.158340,265.405182 220.925018,262.687134 
	C221.472809,262.428955 221.707336,261.506226 222.087280,260.891998 
	C219.020050,260.617065 216.084854,262.641113 214.151154,261.932465 
	C208.748474,259.952454 209.173355,263.843018 208.390701,266.642670 
	C207.791199,268.787201 207.449890,271.003937 206.282608,272.795380 
M306.882782,259.035339 
	C306.645325,258.881775 306.407898,258.728241 306.125854,257.916016 
	C306.720917,255.659439 303.450897,252.209366 308.312744,252.124771 
	C309.021301,253.414246 309.630341,255.738571 310.455261,255.817902 
	C314.482880,256.205170 318.568115,255.993210 322.957428,255.993210 
	C319.926544,230.871933 317.000427,206.618896 314.069153,182.323059 
	C307.023438,182.323059 300.293396,182.323059 293.408112,182.323059 
	C290.407623,206.992981 287.448730,231.321136 284.454926,255.936005 
	C288.699646,255.936005 292.338196,255.936005 296.524872,256.525055 
	C295.601288,257.628479 294.458038,258.617523 293.808868,259.863892 
	C292.968414,261.477448 291.540253,264.307373 292.088043,264.839264 
	C293.809570,266.510925 296.241852,267.674561 298.595337,268.374969 
	C299.734711,268.714050 301.312500,267.579987 301.570770,267.492523 
	C304.343719,269.059357 306.364807,270.201355 308.385925,271.343353 
	C308.497986,269.164276 308.610046,266.985199 308.759186,264.085266 
	C309.846527,263.310699 311.736420,261.964447 313.626282,260.618195 
	C313.520691,260.280945 313.415100,259.943726 313.309509,259.606476 
	C311.376312,259.606476 309.443146,259.606476 306.882782,259.035339 
M424.661102,256.928467 
	C425.099548,256.618713 425.538025,256.308990 425.880249,255.203629 
	C423.162720,255.054565 420.445190,254.905502 416.970581,254.714905 
	C418.626709,251.658112 419.848694,249.402679 421.654541,246.784836 
	C423.227905,243.912018 424.801300,241.039185 426.876648,237.597046 
	C427.352966,235.142685 427.829254,232.688324 428.305542,230.233963 
	C427.792694,229.803192 427.279816,229.372421 426.766968,228.941650 
	C424.619385,230.232101 421.666382,231.021179 420.487579,232.914703 
	C417.827576,237.187592 414.921539,241.837433 414.197235,246.647369 
	C413.344727,252.308807 409.971680,254.608185 405.738739,256.491302 
	C404.135254,257.204651 401.971100,256.657715 400.062531,256.685211 
	C400.048126,255.058517 400.033722,253.431824 400.069489,251.748230 
	C400.069489,251.748230 400.196228,251.837280 400.386688,252.609207 
	C401.694855,252.616150 403.077118,252.900940 404.296722,252.575760 
	C407.430542,251.740189 410.830475,250.490707 410.386108,246.532349 
	C409.947784,242.628342 406.456146,242.219666 403.169434,241.848816 
	C398.235626,241.292114 393.858704,241.865601 390.121155,245.691376 
	C388.130951,247.728546 385.433746,249.074966 382.537048,251.094803 
	C382.414429,248.844391 382.572235,247.320297 382.180298,245.953873 
	C381.869904,244.871628 380.885193,243.982758 380.199890,243.008026 
	C379.321533,243.927979 377.865387,244.742783 377.675171,245.787979 
	C377.144409,248.704575 376.827209,251.735489 377.006470,254.686005 
	C377.213074,258.087128 378.040863,261.450531 378.735046,265.655182 
	C384.259277,259.279480 388.704651,254.148911 393.578247,248.524155 
	C395.537262,262.079620 399.511078,263.532898 412.918701,256.322723 
	C416.311981,260.646149 420.172791,258.525299 424.661102,256.928467 
M225.367218,256.650116 
	C228.356384,265.913086 235.774307,262.378235 242.339798,262.933899 
	C239.454880,264.884094 236.569977,266.834290 233.684204,268.785065 
	C238.467331,275.462189 238.387604,275.402618 233.577133,281.839417 
	C231.294525,284.893738 229.003159,288.055237 227.459915,291.501404 
	C226.662903,293.281219 227.493042,295.789703 227.587997,297.968933 
	C229.696838,297.318207 232.645844,297.321442 233.756851,295.894043 
	C237.080444,291.623993 241.002960,287.113495 242.218613,282.097534 
	C243.578201,276.487701 247.510086,275.086823 251.167999,272.352753 
	C252.095749,273.872131 252.824203,275.065125 254.050018,277.072693 
	C256.662872,273.015106 258.937988,269.481995 261.030090,266.233093 
	C262.601135,268.466248 264.136749,270.648987 265.854950,273.091339 
	C267.706207,271.580994 269.085236,270.455933 270.458557,269.335510 
	C271.843262,270.264587 273.121796,271.122437 274.163300,271.821259 
	C274.860138,268.001221 275.510651,264.435272 276.153046,260.913574 
	C269.777618,256.066071 271.110504,267.273407 266.726593,265.921509 
	C266.583038,263.068024 266.459167,260.605316 266.335297,258.142609 
	C263.543365,259.405426 260.751434,260.668243 258.050720,261.889832 
	C257.979492,260.575165 257.876404,258.672241 257.773315,256.769287 
	C257.169189,256.669891 256.565063,256.570496 255.960953,256.471100 
	C254.875641,259.775848 254.381744,263.470276 252.534866,266.273193 
	C250.770111,268.951416 247.753616,270.955780 244.938019,272.688843 
	C244.195908,273.145660 242.162186,271.504059 240.042557,270.506470 
	C241.835464,269.138611 242.683075,268.378113 243.635406,267.786133 
	C246.842056,265.792694 249.725861,262.988556 247.526154,259.398346 
	C246.643524,257.957764 242.145233,257.898163 239.606827,258.511108 
	C236.197510,259.334351 233.792526,258.884186 232.568451,256.054871 
	C234.144043,255.982391 235.719635,255.909897 237.543884,255.825974 
	C234.598495,230.893829 231.729797,206.610733 228.865433,182.364349 
	C221.623581,182.364349 214.914581,182.364349 208.174606,182.364349 
	C205.163864,207.062744 202.200867,231.369568 199.240128,255.657806 
	C204.101501,255.657806 208.340179,255.657806 212.741348,255.657806 
	C213.280624,249.741409 213.789490,244.158524 214.317368,238.367157 
	C216.984146,238.367157 219.364578,238.367157 221.975861,238.367157 
	C222.363861,243.087128 222.606766,247.557693 223.168579,251.987808 
	C223.345978,253.386719 224.376694,254.677399 225.367218,256.650116 
M279.874268,253.190430 
	C279.874268,229.610733 279.874268,206.031036 279.874268,182.316925 
	C275.236420,182.316925 271.032501,182.316925 266.754242,182.316925 
	C266.754242,196.979416 266.754242,211.311813 266.754242,225.644211 
	C266.646606,225.641235 266.538940,225.638275 266.431305,225.635300 
	C263.380371,211.112808 260.329468,196.590332 257.315399,182.243195 
	C251.815720,182.243195 247.045746,182.243195 242.186798,182.243195 
	C242.186798,206.889343 242.186798,231.241943 242.186798,255.680450 
	C246.629318,255.680450 250.696304,255.680450 254.766571,255.680450 
	C254.766571,241.006134 254.766571,226.623566 254.766571,212.240997 
	C254.922302,212.240021 255.078033,212.239059 255.233765,212.238083 
	C258.295593,226.746674 261.357391,241.255264 264.460205,255.958176 
	C269.181396,255.958176 273.330109,256.055573 277.466736,255.875305 
	C278.285553,255.839615 279.057861,254.737045 279.874268,253.190430 
M358.339539,257.939880 
	C355.885406,261.296387 356.621521,265.472412 359.699249,266.392853 
	C362.112000,267.114410 365.656281,264.052429 368.813293,262.618958 
	C369.248688,263.239227 370.194641,264.586823 371.512787,266.464630 
	C372.268372,261.813568 372.902740,258.069092 373.477509,254.315460 
	C373.870880,251.746246 375.984863,248.932022 371.936066,247.110489 
	C368.184479,245.422684 365.340179,245.647873 363.251617,249.548431 
	C361.843140,252.178802 360.235840,254.702682 358.339539,257.939880 
M183.141998,271.968384 
	C183.393402,270.329437 183.882019,268.685669 183.848801,267.052521 
	C183.770142,263.185913 184.815033,260.731812 189.344315,260.688141 
	C190.681229,260.675293 192.003159,259.107178 193.331955,258.251770 
	C193.129715,257.695862 192.927490,257.139923 192.725266,256.583984 
	C185.373962,257.270813 178.022675,257.957642 170.671387,258.644440 
	C170.598831,259.413055 170.526291,260.181671 170.453751,260.950256 
	C173.226822,261.560974 175.999908,262.171692 178.911774,262.812958 
	C178.911774,269.555084 178.911774,276.465851 178.911774,283.376648 
	C179.482239,283.459869 180.052704,283.543060 180.623169,283.626282 
	C183.156219,280.575714 182.217239,276.432983 183.141998,271.968384 
M224.973846,274.466339 
	C225.596786,272.604584 226.398697,270.777100 226.764175,268.866089 
	C226.936890,267.963043 226.567001,266.536652 225.910629,266.006714 
	C225.182770,265.419067 223.137466,265.120453 222.891754,265.496674 
	C221.312119,267.915253 219.325745,270.453308 218.962006,273.152771 
	C218.695984,275.127106 220.708679,277.408508 222.275818,280.779480 
	C223.595184,277.856812 224.187424,276.544922 224.973846,274.466339 
z"/>
<path fill="#4B3B3A" opacity="1.000000" stroke="none" 
	d="
M112.978302,292.786377 
	C112.613281,301.513855 112.195381,310.239563 111.906487,318.969543 
	C111.770721,323.072083 111.883224,327.182831 111.883224,331.549469 
	C107.724640,331.210785 104.006119,330.907959 100.286736,330.605042 
	C101.365784,320.030243 102.462517,309.841339 103.406914,299.638397 
	C103.646774,297.047028 103.402153,294.410797 103.484322,291.153625 
	C103.911224,285.209442 104.215996,279.905670 104.559975,274.604431 
	C105.688988,257.204407 106.950310,239.811295 107.828903,222.398773 
	C107.946060,220.076950 106.151230,217.658646 104.873627,214.323990 
	C102.212837,217.492157 100.657257,219.344360 98.778069,221.581894 
	C98.257698,220.195221 97.936943,219.340500 97.167587,217.290329 
	C94.124031,220.655518 91.930138,224.314789 88.703079,226.260529 
	C86.103630,227.827881 83.571701,228.919403 82.103317,231.742142 
	C81.995934,231.948578 80.111610,231.230637 79.025749,230.934921 
	C76.992538,235.008438 74.987846,239.024811 72.620331,243.768112 
	C71.245453,241.473221 70.444740,240.136688 69.574394,238.683929 
	C68.893997,239.892929 68.330391,240.894409 67.766792,241.895889 
	C67.197105,241.068756 66.487068,240.303497 66.089012,239.400681 
	C65.409668,237.859909 64.926079,236.232834 63.670727,234.622986 
	C66.120087,227.730499 71.492744,222.607376 77.378387,217.219025 
	C78.113136,216.722183 78.245369,216.468475 78.194801,216.119354 
	C78.194801,216.119354 78.082047,216.102600 78.471649,216.135498 
	C86.015694,213.225418 93.170143,210.282455 100.324585,207.339508 
	C100.525887,206.926559 100.727180,206.513626 100.928474,206.100677 
	C99.270645,205.433762 97.577888,204.144974 95.962616,204.235687 
	C93.038666,204.399902 90.160934,205.386993 86.883606,205.944885 
	C85.979996,206.219086 85.456703,206.578918 84.962204,206.962173 
	C84.990997,206.985596 84.991364,206.911377 84.636406,206.747498 
	C83.676163,207.068680 83.070877,207.553757 82.442474,208.029236 
	C82.419350,208.019653 82.432610,208.028061 82.432610,208.028061 
	C79.202087,209.641983 75.971565,211.255890 71.935966,213.272003 
	C72.011436,213.541214 71.701065,212.434097 71.441048,211.506638 
	C69.143181,213.243805 67.636543,214.382812 66.129906,215.521835 
	C65.763039,215.290894 65.396179,215.059952 65.029320,214.829010 
	C65.528793,213.062378 66.028267,211.295731 66.604576,209.257339 
	C65.853546,209.065140 64.907013,208.822906 63.479958,208.457687 
	C68.166191,201.136032 75.075027,198.661133 82.654884,198.102188 
	C89.051590,197.630478 95.517815,198.101608 102.563683,198.448715 
	C103.773315,198.778000 104.372528,198.814011 105.782059,198.898682 
	C104.593948,198.081787 104.086319,197.732773 103.578690,197.383743 
	C97.826996,195.158386 92.158768,192.659927 86.276398,190.862167 
	C84.330154,190.267365 81.798470,191.344177 79.595642,191.899445 
	C77.246025,192.491699 74.968796,193.371124 72.310318,194.239380 
	C72.053528,192.257645 71.858269,190.750778 71.634651,189.025040 
	C69.897682,190.257339 68.365692,191.344223 66.833702,192.431107 
	C66.476486,192.202942 66.119270,191.974777 65.762054,191.746613 
	C66.381805,190.050064 67.001564,188.353531 67.719864,186.387238 
	C66.733849,186.387238 65.604912,186.387238 63.656055,186.387238 
	C64.423317,184.691620 64.964424,183.495789 65.498856,182.314713 
	C64.156944,181.899384 62.680981,181.442566 60.046494,180.627197 
	C66.135277,176.161621 72.032265,176.204346 77.618896,177.640533 
	C83.116951,179.053955 88.279686,181.771729 94.228310,183.140396 
	C91.799065,181.490295 89.369812,179.840210 86.481804,177.878494 
	C87.768929,176.868073 88.694565,176.141418 89.752762,175.310715 
	C88.552719,174.509094 87.285461,173.737854 86.099648,172.856964 
	C81.777733,169.646408 76.429482,169.055954 71.527107,167.461899 
	C69.793175,166.898087 67.268143,168.767258 65.551773,169.368805 
	C63.606075,167.557465 61.957554,166.022781 59.693577,163.915131 
	C63.837608,161.220673 68.679359,160.770523 73.084366,161.389954 
	C77.684128,162.036774 82.086853,164.278305 86.493332,166.029938 
	C88.935173,167.000580 91.208519,168.395126 93.664070,169.478958 
	C93.987015,169.475891 94.203705,169.592438 94.420395,169.708984 
	C94.274376,169.475266 94.128357,169.241547 93.982338,169.007828 
	C93.208069,167.892105 92.648621,166.489746 91.617409,165.716827 
	C88.997711,163.753311 86.166801,162.071609 83.420441,160.277084 
	C83.567505,159.831284 83.714577,159.385498 83.861641,158.939697 
	C86.443977,158.939697 89.026314,158.939697 91.873253,158.939697 
	C91.938156,157.821808 91.997261,156.803726 92.115112,154.773743 
	C95.481033,156.771408 98.263763,158.422943 101.496521,160.409607 
	C102.266975,160.862778 102.587402,160.980835 103.016182,161.394104 
	C103.490662,161.652054 103.856796,161.614792 104.222931,161.577530 
	C104.017952,161.215347 103.812973,160.853165 103.489319,160.300171 
	C103.173470,159.882950 102.957504,159.676178 102.722763,159.489014 
	C102.646523,157.251694 96.919922,156.878662 100.703156,153.367935 
	C99.512009,152.252777 98.473366,150.861740 97.088844,150.096405 
	C95.559906,149.251266 93.713913,148.979721 91.904846,148.427444 
	C92.138199,146.807678 92.374367,145.168350 92.450706,144.638474 
	C95.146973,142.927704 97.131851,141.383804 99.361389,140.387299 
	C100.314377,139.961349 101.992401,140.333313 102.965248,140.942612 
	C105.190994,142.336594 107.185364,144.100021 109.313721,145.744339 
	C111.660744,142.307907 112.925156,144.595657 113.551834,146.847595 
	C115.039688,152.194138 116.198151,157.632339 117.739365,164.077469 
	C118.724182,162.242828 119.845901,161.140579 119.690125,160.265823 
	C119.131149,157.126923 117.847832,154.104523 117.422043,150.959076 
	C117.166359,149.070282 117.993874,147.034866 118.450752,144.393799 
	C126.497902,148.904999 130.501236,155.081192 130.273529,164.474243 
	C130.138245,165.934982 130.138245,166.754501 130.138245,168.622192 
	C130.958969,166.991272 131.292892,166.327713 131.626831,165.664154 
	C133.065018,162.678131 134.929474,159.817383 135.851562,156.679688 
	C137.700653,150.387573 143.189590,147.824432 147.866531,144.627792 
	C149.248169,143.683456 152.254059,145.068741 154.503326,145.457642 
	C155.924835,145.703400 157.323547,146.080963 158.675735,146.386566 
	C156.428207,150.435257 154.150955,154.537521 151.280365,159.708618 
	C159.198013,156.624420 165.793686,154.055161 173.311386,151.126770 
	C172.879959,153.461304 172.671036,154.591827 172.478516,155.633636 
	C174.818069,156.042435 177.171097,156.453583 179.524124,156.864746 
	C179.642776,157.363937 179.761429,157.863144 179.880066,158.362350 
	C176.504227,160.137863 173.128403,161.913376 169.652924,163.741287 
	C170.212692,164.158386 171.116592,164.831924 172.109314,165.571640 
	C169.173706,171.267853 163.425430,170.700195 158.708511,172.460175 
	C159.409119,172.825974 160.171997,173.224274 162.135101,174.249222 
	C157.699097,175.537842 154.246170,176.540878 151.036545,177.473236 
	C152.189896,183.358673 142.815887,179.267639 143.834198,184.519333 
	C156.196732,182.718887 168.892868,180.869858 181.589005,179.020813 
	C181.771866,179.531662 181.954742,180.042511 182.137604,180.553360 
	C181.271759,181.594498 180.405899,182.635651 179.557114,183.656265 
	C181.402481,184.242554 183.317642,184.851013 185.232819,185.459473 
	C185.269089,185.932556 185.305344,186.405640 185.341614,186.878723 
	C184.009842,187.438538 182.678070,187.998352 181.076401,188.671631 
	C181.647110,189.608383 182.292023,190.666931 182.927963,191.710754 
	C180.081955,195.522812 176.916168,196.252014 172.107727,194.908737 
	C168.135818,193.799149 163.512375,195.021759 158.717133,196.148499 
	C173.059982,201.382980 181.101349,210.344345 180.232971,225.361023 
	C179.740524,225.684402 179.248062,226.007797 178.755615,226.331177 
	C177.634857,224.423401 176.514084,222.515640 175.258331,220.378113 
	C174.437057,220.860245 173.644211,221.325684 172.266769,222.134323 
	C171.195190,218.690582 170.162109,215.370544 168.707291,210.695175 
	C168.080063,213.690887 167.750000,215.267303 167.419937,216.843704 
	C167.060379,216.967575 166.700821,217.091446 166.341263,217.215317 
	C165.181061,215.103165 164.020859,212.990997 162.466248,210.160828 
	C162.193832,213.200256 161.982178,215.561859 161.770523,217.923477 
	C161.407883,217.944412 161.045227,217.965363 160.682571,217.986298 
	C159.088623,214.155701 157.494675,210.325089 155.618561,205.816376 
	C154.537842,207.758224 153.874207,208.950653 153.010162,210.503189 
	C150.595856,207.972610 148.517380,205.794022 145.712677,202.854218 
	C145.712677,205.173798 145.712677,206.277725 145.245819,207.710632 
	C137.645309,205.522873 130.839325,201.414444 121.338631,203.188019 
	C124.980171,205.451019 127.386330,207.145615 129.966446,208.511703 
	C137.246109,212.366089 144.578415,216.122955 151.938385,219.821915 
	C153.186111,220.449020 154.673706,220.598816 156.050476,220.969147 
	C156.050476,220.969147 156.006149,221.003082 156.047180,221.309509 
	C156.506180,221.753448 156.924133,221.890961 157.342102,222.028473 
	C166.672897,229.547745 167.547470,240.728775 169.825058,251.245834 
	C170.214767,253.045288 169.412354,255.102921 169.160645,257.041260 
	C168.625168,257.133698 168.089691,257.226135 167.554214,257.318573 
	C166.377045,255.301392 165.240234,253.258499 163.985901,251.290482 
	C163.757385,250.931946 163.049194,250.879120 161.969849,250.706665 
	C160.641190,247.401123 159.905090,244.074097 159.134964,240.593262 
	C158.198135,241.425476 157.288116,242.233871 155.947083,243.425140 
	C155.159866,240.298386 154.538879,237.831909 153.891418,235.260284 
	C152.892761,236.468567 152.154343,237.361984 151.284866,238.413956 
	C142.823883,222.628265 142.823883,222.628265 138.254929,224.992767 
	C141.113388,231.659119 145.228424,238.187729 139.764343,246.830261 
	C139.311630,245.376266 138.858917,243.922256 138.203583,241.817505 
	C136.692139,246.012833 135.766327,248.582687 134.840500,251.152527 
	C134.301666,251.038025 133.762833,250.923523 133.223999,250.809021 
	C133.028549,247.855560 132.833099,244.902100 132.628357,241.808121 
	C131.393814,243.364456 130.296143,244.748245 129.198471,246.132019 
	C128.800354,246.001038 128.402237,245.870041 128.004120,245.739059 
	C129.374054,240.761063 125.121140,237.188202 125.787025,231.732376 
	C126.361061,227.029129 122.803909,221.821686 121.248703,217.342575 
	C119.175964,218.999313 116.923714,220.691025 116.734161,224.884354 
	C116.000481,241.115234 114.277496,257.298676 113.189163,273.517639 
	C112.759781,279.916473 113.027832,286.362061 112.978302,292.786377 
M117.920006,173.522903 
	C118.058037,176.168243 118.196068,178.813599 118.374275,182.228943 
	C120.281639,176.226990 122.317184,170.988190 119.061234,164.015503 
	C118.566597,167.756577 118.245903,170.182098 117.920006,173.522903 
M150.448975,162.239716 
	C150.320145,161.862244 150.226669,161.464218 150.029984,161.126251 
	C149.994461,161.065231 149.534866,161.251022 149.271042,161.322861 
	C149.442963,161.804382 149.614868,162.285889 150.448975,162.239716 
z"/>
<path fill="#F26310" opacity="1.000000" stroke="none" 
	d="
M279.862946,253.658447 
	C279.057861,254.737045 278.285553,255.839615 277.466736,255.875305 
	C273.330109,256.055573 269.181396,255.958176 264.460205,255.958176 
	C261.357391,241.255264 258.295593,226.746674 255.233765,212.238083 
	C255.078033,212.239059 254.922302,212.240021 254.766571,212.240997 
	C254.766571,226.623566 254.766571,241.006134 254.766571,255.680450 
	C250.696304,255.680450 246.629318,255.680450 242.186798,255.680450 
	C242.186798,231.241943 242.186798,206.889343 242.186798,182.243195 
	C247.045746,182.243195 251.815720,182.243195 257.315399,182.243195 
	C260.329468,196.590332 263.380371,211.112808 266.431305,225.635300 
	C266.538940,225.638275 266.646606,225.641235 266.754242,225.644211 
	C266.754242,211.311813 266.754242,196.979416 266.754242,182.316925 
	C271.032501,182.316925 275.236420,182.316925 279.874268,182.316925 
	C279.874268,206.031036 279.874268,229.610733 279.862946,253.658447 
z"/>
<path fill="#FB7A27" opacity="1.000000" stroke="none" 
	d="
M113.423027,292.833618 
	C113.027832,286.362061 112.759781,279.916473 113.189163,273.517639 
	C114.277496,257.298676 116.000481,241.115234 116.734161,224.884354 
	C116.923714,220.691025 119.175964,218.999313 121.248703,217.342575 
	C122.803909,221.821686 126.361061,227.029129 125.787025,231.732376 
	C125.121140,237.188202 129.374054,240.761063 128.004120,245.739059 
	C128.402237,245.870041 128.800354,246.001038 129.198471,246.132019 
	C130.296143,244.748245 131.393814,243.364456 132.628357,241.808121 
	C132.833099,244.902100 133.028549,247.855560 133.223999,250.809021 
	C133.762833,250.923523 134.301666,251.038025 134.840500,251.152527 
	C135.766327,248.582687 136.692139,246.012833 138.203583,241.817505 
	C138.858917,243.922256 139.311630,245.376266 139.764343,246.830261 
	C145.228424,238.187729 141.113388,231.659119 138.254929,224.992767 
	C142.823883,222.628265 142.823883,222.628265 151.284866,238.413956 
	C152.154343,237.361984 152.892761,236.468567 153.891418,235.260284 
	C154.538879,237.831909 155.159866,240.298386 155.947083,243.425140 
	C157.288116,242.233871 158.198135,241.425476 159.134964,240.593262 
	C159.905090,244.074097 160.641190,247.401123 161.709259,250.945068 
	C160.949203,269.588837 150.096756,281.246307 134.479019,288.587524 
	C128.300934,291.491547 120.778221,291.534912 113.423027,292.833618 
z"/>
<path fill="#FC7A27" opacity="1.000000" stroke="none" 
	d="
M67.798019,242.367889 
	C68.330391,240.894409 68.893997,239.892929 69.574394,238.683929 
	C70.444740,240.136688 71.245453,241.473221 72.620331,243.768112 
	C74.987846,239.024811 76.992538,235.008438 79.025749,230.934921 
	C80.111610,231.230637 81.995934,231.948578 82.103317,231.742142 
	C83.571701,228.919403 86.103630,227.827881 88.703079,226.260529 
	C91.930138,224.314789 94.124031,220.655518 97.167587,217.290329 
	C97.936943,219.340500 98.257698,220.195221 98.778069,221.581894 
	C100.657257,219.344360 102.212837,217.492157 104.873627,214.323990 
	C106.151230,217.658646 107.946060,220.076950 107.828903,222.398773 
	C106.950310,239.811295 105.688988,257.204407 104.559975,274.604431 
	C104.215996,279.905670 103.911224,285.209442 103.289307,290.813293 
	C89.234840,288.188477 79.950951,279.610260 73.328506,267.660767 
	C69.043320,259.928589 67.375160,251.620255 67.798019,242.367889 
z"/>
<path fill="#F26411" opacity="1.000000" stroke="none" 
	d="
M295.976776,255.936005 
	C292.338196,255.936005 288.699646,255.936005 284.454926,255.936005 
	C287.448730,231.321136 290.407623,206.992981 293.408112,182.323059 
	C300.293396,182.323059 307.023438,182.323059 314.069153,182.323059 
	C317.000427,206.618896 319.926544,230.871933 322.957428,255.993210 
	C318.568115,255.993210 314.482880,256.205170 310.455261,255.817902 
	C309.630341,255.738571 309.021301,253.414246 308.462677,251.495041 
	C309.453461,250.374527 310.294312,249.883728 311.605347,249.118500 
	C310.250275,246.140778 308.863953,243.094421 307.385040,239.617477 
	C304.787323,238.712616 302.282166,238.238327 298.930969,237.603851 
	C298.930969,241.494644 298.930969,244.260925 298.666260,247.250122 
	C293.754517,249.194138 295.316742,252.694321 295.976776,255.936005 
M305.819061,218.723862 
	C305.131073,211.037766 304.443115,203.351685 303.755127,195.665588 
	C303.403809,195.675690 303.052490,195.685791 302.701172,195.695892 
	C302.018616,205.968384 301.336060,216.240860 300.636139,226.774597 
	C302.689636,226.774597 304.234100,226.774597 305.845154,226.774597 
	C305.845154,224.221024 305.845154,221.940475 305.819061,218.723862 
z"/>
<path fill="#F2620E" opacity="1.000000" stroke="none" 
	d="
M225.016907,256.017609 
	C224.376694,254.677399 223.345978,253.386719 223.168579,251.987808 
	C222.606766,247.557693 222.363861,243.087128 221.975861,238.367157 
	C219.364578,238.367157 216.984146,238.367157 214.317368,238.367157 
	C213.789490,244.158524 213.280624,249.741409 212.741348,255.657806 
	C208.340179,255.657806 204.101501,255.657806 199.240128,255.657806 
	C202.200867,231.369568 205.163864,207.062744 208.174606,182.364349 
	C214.914581,182.364349 221.623581,182.364349 228.865433,182.364349 
	C231.729797,206.610733 234.598495,230.893829 237.543884,255.825974 
	C235.719635,255.909897 234.144043,255.982391 231.830811,256.025909 
	C229.667801,254.979568 228.242416,253.962173 226.501862,252.719818 
	C225.911057,254.031860 225.463989,255.024734 225.016907,256.017609 
M219.006363,200.593872 
	C219.006363,198.899200 219.006363,197.204529 219.006363,195.509857 
	C218.508743,195.496887 218.011124,195.483902 217.513504,195.470917 
	C216.777451,205.841797 216.041397,216.212677 215.298035,226.686432 
	C217.446777,226.686432 219.139481,226.686432 221.148651,226.686432 
	C220.412811,218.019547 219.711029,209.753723 219.006363,200.593872 
M231.835693,243.258194 
	C229.975510,241.152222 228.702621,241.097534 228.261917,244.221634 
	C229.746063,245.013062 231.147339,245.760300 233.725601,247.135178 
	C233.032394,245.308334 232.694397,244.417587 231.835693,243.258194 
M229.094162,251.838531 
	C233.815781,249.562424 229.774155,248.425018 227.769348,246.962234 
	C227.993011,248.607376 228.216660,250.252533 229.094162,251.838531 
M226.983002,247.053772 
	C226.679184,245.886993 226.375351,244.720230 226.071533,243.553452 
	C225.547699,243.849609 225.023865,244.145752 224.500015,244.441895 
	C225.310822,245.521637 226.121628,246.601379 226.983002,247.053772 
M209.987595,225.238937 
	C209.519775,225.285660 209.051971,225.332382 208.584152,225.379120 
	C208.779694,225.747955 208.975235,226.116791 209.170776,226.485626 
	C209.600052,226.152771 210.029343,225.819916 209.987595,225.238937 
z"/>
<path fill="#F2610D" opacity="1.000000" stroke="none" 
	d="
M326.251312,243.374161 
	C330.800293,227.414261 335.351440,211.454971 339.881012,195.489578 
	C339.962219,195.203247 339.785370,194.843704 339.656921,194.103348 
	C335.318024,194.103348 330.902832,194.103348 326.291870,194.103348 
	C326.291870,189.951721 326.291870,186.217270 326.291870,182.235687 
	C335.633911,182.235687 344.734222,182.235687 353.936005,182.235687 
	C356.068268,189.959457 353.069061,196.991394 351.103516,204.134552 
	C347.711395,216.462280 344.247498,228.770264 340.362610,241.562408 
	C335.358093,242.483582 330.804718,242.928879 326.251312,243.374161 
z"/>
<path fill="#514141" opacity="1.000000" stroke="none" 
	d="
M225.192062,256.333862 
	C225.463989,255.024734 225.911057,254.031860 226.501862,252.719818 
	C228.242416,253.962173 229.667801,254.979568 231.412994,256.083374 
	C233.792526,258.884186 236.197510,259.334351 239.606827,258.511108 
	C242.145233,257.898163 246.643524,257.957764 247.526154,259.398346 
	C249.725861,262.988556 246.842056,265.792694 243.635406,267.786133 
	C242.683075,268.378113 241.835464,269.138611 240.042557,270.506470 
	C242.162186,271.504059 244.195908,273.145660 244.938019,272.688843 
	C247.753616,270.955780 250.770111,268.951416 252.534866,266.273193 
	C254.381744,263.470276 254.875641,259.775848 255.960953,256.471100 
	C256.565063,256.570496 257.169189,256.669891 257.773315,256.769287 
	C257.876404,258.672241 257.979492,260.575165 258.050720,261.889832 
	C260.751434,260.668243 263.543365,259.405426 266.335297,258.142609 
	C266.459167,260.605316 266.583038,263.068024 266.726593,265.921509 
	C271.110504,267.273407 269.777618,256.066071 276.153046,260.913574 
	C275.510651,264.435272 274.860138,268.001221 274.163300,271.821259 
	C273.121796,271.122437 271.843262,270.264587 270.458557,269.335510 
	C269.085236,270.455933 267.706207,271.580994 265.854950,273.091339 
	C264.136749,270.648987 262.601135,268.466248 261.030090,266.233093 
	C258.937988,269.481995 256.662872,273.015106 254.050018,277.072693 
	C252.824203,275.065125 252.095749,273.872131 251.167999,272.352753 
	C247.510086,275.086823 243.578201,276.487701 242.218613,282.097534 
	C241.002960,287.113495 237.080444,291.623993 233.756851,295.894043 
	C232.645844,297.321442 229.696838,297.318207 227.587997,297.968933 
	C227.493042,295.789703 226.662903,293.281219 227.459915,291.501404 
	C229.003159,288.055237 231.294525,284.893738 233.577133,281.839417 
	C238.387604,275.402618 238.467331,275.462189 233.684204,268.785065 
	C236.569977,266.834290 239.454880,264.884094 242.339798,262.933899 
	C235.774307,262.378235 228.356384,265.913086 225.192062,256.333862 
M237.687469,281.244507 
	C232.981583,284.016937 231.933502,288.935150 229.682236,293.147552 
	C230.275589,293.486694 230.868942,293.825836 231.462296,294.164978 
	C233.648727,290.076141 235.835159,285.987274 237.687469,281.244507 
M257.645416,264.819733 
	C257.741608,264.225952 257.837830,263.632172 257.934052,263.038391 
	C257.638184,263.449402 257.342316,263.860382 257.645416,264.819733 
z"/>
<path fill="#4F4040" opacity="1.000000" stroke="none" 
	d="
M400.019318,251.805130 
	C400.033722,253.431824 400.048126,255.058517 400.062531,256.685211 
	C401.971100,256.657715 404.135254,257.204651 405.738739,256.491302 
	C409.971680,254.608185 413.344727,252.308807 414.197235,246.647369 
	C414.921539,241.837433 417.827576,237.187592 420.487579,232.914703 
	C421.666382,231.021179 424.619385,230.232101 426.766968,228.941650 
	C427.279816,229.372421 427.792694,229.803192 428.305542,230.233963 
	C427.829254,232.688324 427.352966,235.142685 426.321930,237.700378 
	C425.213043,236.958527 424.658875,236.113358 423.636444,234.554031 
	C423.338776,236.265717 423.190643,237.117416 423.023010,237.985260 
	C423.003479,238.001419 422.971008,238.040359 422.632538,238.075867 
	C418.232391,242.672028 417.836334,245.597275 421.070648,247.147263 
	C419.848694,249.402679 418.626709,251.658112 416.970581,254.714905 
	C420.445190,254.905502 423.162720,255.054565 425.647888,255.615265 
	C424.950348,256.294525 424.485168,256.562103 424.019958,256.829712 
	C420.172791,258.525299 416.311981,260.646149 412.918701,256.322723 
	C399.511078,263.532898 395.537262,262.079620 393.578247,248.524155 
	C388.704651,254.148911 384.259277,259.279480 378.735046,265.655182 
	C378.040863,261.450531 377.213074,258.087128 377.006470,254.686005 
	C376.827209,251.735489 377.144409,248.704575 377.675171,245.787979 
	C377.865387,244.742783 379.321533,243.927979 380.199890,243.008026 
	C380.885193,243.982758 381.869904,244.871628 382.180298,245.953873 
	C382.572235,247.320297 382.414429,248.844391 382.537048,251.094803 
	C385.433746,249.074966 388.130951,247.728546 390.121155,245.691376 
	C393.858704,241.865601 398.235626,241.292114 403.169434,241.848816 
	C406.456146,242.219666 409.947784,242.628342 410.386108,246.532349 
	C410.830475,250.490707 407.430542,251.740189 404.296722,252.575760 
	C403.077118,252.900940 401.694855,252.616150 400.479736,251.924698 
	C400.266968,251.041946 399.961212,250.843704 399.655426,250.645477 
	C399.776703,251.032028 399.898010,251.418579 400.019318,251.805130 
M402.672943,247.008240 
	C403.329773,246.693314 403.986572,246.378387 404.643402,246.063446 
	C404.447968,245.773727 404.252533,245.484009 404.057068,245.194290 
	C403.364044,245.790497 402.670990,246.386719 401.704834,247.105942 
	C401.809540,247.078735 401.914276,247.051514 402.672943,247.008240 
M394.850647,248.587357 
	C394.640137,248.512817 394.429657,248.438278 394.219147,248.363739 
	C394.285126,248.574982 394.351135,248.786209 394.850647,248.587357 
M398.404419,244.477386 
	C398.404419,244.477386 398.523956,244.402023 398.404419,244.477386 
z"/>
<path fill="#534241" opacity="1.000000" stroke="none" 
	d="
M307.477631,240.048050 
	C308.863953,243.094421 310.250275,246.140778 311.605347,249.118500 
	C310.294312,249.883728 309.453461,250.374527 308.401154,251.048813 
	C303.450897,252.209366 306.720917,255.659439 306.092468,258.491943 
	C306.542725,259.247406 307.026337,259.426941 307.509949,259.606476 
	C309.443146,259.606476 311.376312,259.606476 313.309509,259.606476 
	C313.415100,259.943726 313.520691,260.280945 313.626282,260.618195 
	C311.736420,261.964447 309.846527,263.310699 308.759186,264.085266 
	C308.610046,266.985199 308.497986,269.164276 308.385925,271.343353 
	C306.364807,270.201355 304.343719,269.059357 301.570770,267.492523 
	C301.312500,267.579987 299.734711,268.714050 298.595337,268.374969 
	C296.241852,267.674561 293.809570,266.510925 292.088043,264.839264 
	C291.540253,264.307373 292.968414,261.477448 293.808868,259.863892 
	C294.458038,258.617523 295.601288,257.628479 296.250824,256.230530 
	C295.316742,252.694321 293.754517,249.194138 299.013184,247.206757 
	C302.242401,244.643005 304.860016,242.345535 307.477631,240.048050 
z"/>
<path fill="#534444" opacity="1.000000" stroke="none" 
	d="
M358.528503,257.607056 
	C360.235840,254.702682 361.843140,252.178802 363.251617,249.548431 
	C365.340179,245.647873 368.184479,245.422684 371.936066,247.110489 
	C375.984863,248.932022 373.870880,251.746246 373.477509,254.315460 
	C372.902740,258.069092 372.268372,261.813568 371.512787,266.464630 
	C370.194641,264.586823 369.248688,263.239227 368.813293,262.618958 
	C365.656281,264.052429 362.112000,267.114410 359.699249,266.392853 
	C356.621521,265.472412 355.885406,261.296387 358.528503,257.607056 
z"/>
<path fill="#514141" opacity="1.000000" stroke="none" 
	d="
M183.103394,272.410309 
	C182.217239,276.432983 183.156219,280.575714 180.623169,283.626282 
	C180.052704,283.543060 179.482239,283.459869 178.911774,283.376648 
	C178.911774,276.465851 178.911774,269.555084 178.911774,262.812958 
	C175.999908,262.171692 173.226822,261.560974 170.453751,260.950256 
	C170.526291,260.181671 170.598831,259.413055 170.671387,258.644440 
	C178.022675,257.957642 185.373962,257.270813 192.725266,256.583984 
	C192.927490,257.139923 193.129715,257.695862 193.331955,258.251770 
	C192.003159,259.107178 190.681229,260.675293 189.344315,260.688141 
	C184.815033,260.731812 183.770142,263.185913 183.848801,267.052521 
	C183.882019,268.685669 183.393402,270.329437 183.103394,272.410309 
z"/>
<path fill="#503C39" opacity="1.000000" stroke="none" 
	d="
M326.119751,243.555283 
	C330.804718,242.928879 335.358093,242.483582 340.316589,241.957367 
	C343.126678,242.246033 345.531647,242.615616 347.703491,243.576797 
	C345.963318,244.767639 344.485657,245.766190 342.942871,245.879776 
	C340.068970,246.091354 338.848389,247.287506 338.859711,250.168274 
	C338.867340,252.109482 338.436523,254.052444 338.201813,255.994614 
	C336.949646,260.105621 338.162140,264.970825 335.304871,268.590668 
	C334.535431,268.520508 333.766022,268.450348 332.996582,268.380219 
	C332.996582,264.552216 332.996582,260.724243 333.023407,256.032043 
	C333.338776,252.628799 333.627319,250.089798 333.929749,247.428497 
	C330.807129,247.164932 328.338959,246.956604 325.870728,246.748291 
	C325.909882,245.744324 325.949036,244.740372 326.119751,243.555283 
z"/>
<path fill="#F37829" opacity="1.000000" stroke="none" 
	d="
M156.066559,220.617279 
	C154.673706,220.598816 153.186111,220.449020 151.938385,219.821915 
	C144.578415,216.122955 137.246109,212.366089 129.966446,208.511703 
	C127.386330,207.145615 124.980171,205.451019 121.338631,203.188019 
	C130.839325,201.414444 137.645309,205.522873 145.093842,208.109360 
	C148.966705,212.207886 152.524658,216.236649 156.066559,220.617279 
z"/>
<path fill="#4E3F3F" opacity="1.000000" stroke="none" 
	d="
M206.983795,276.052460 
	C204.012039,275.914062 201.263824,275.623138 199.617493,279.306335 
	C199.084076,280.499725 195.028732,281.615234 194.330383,280.945557 
	C192.550354,279.238647 190.571915,276.369171 190.819321,274.210907 
	C191.291473,270.092133 193.257156,266.144562 195.000992,260.936951 
	C199.207260,266.811493 195.553314,271.515472 195.308273,276.112732 
	C195.730591,276.241913 196.152924,276.371063 196.575256,276.500244 
	C197.480835,274.202484 198.207825,271.810089 199.356842,269.641296 
	C200.083664,268.269379 201.439987,267.230957 202.514008,266.042969 
	C203.378357,267.407715 204.285919,268.747559 205.090820,270.146515 
	C205.571274,270.981628 205.890762,271.909302 206.631104,273.349884 
	C206.981003,274.620422 206.982407,275.336426 206.983795,276.052460 
z"/>
<path fill="#554646" opacity="1.000000" stroke="none" 
	d="
M207.038544,276.393250 
	C206.982407,275.336426 206.981003,274.620422 206.986679,273.546448 
	C207.449890,271.003937 207.791199,268.787201 208.390701,266.642670 
	C209.173355,263.843018 208.748474,259.952454 214.151154,261.932465 
	C216.084854,262.641113 219.020050,260.617065 222.087280,260.891998 
	C221.707336,261.506226 221.472809,262.428955 220.925018,262.687134 
	C215.158340,265.405182 212.859055,270.168213 212.356110,276.251129 
	C212.237930,277.680573 211.074341,279.023560 210.391693,280.406342 
	C209.292236,279.182220 208.192764,277.958130 207.038544,276.393250 
z"/>
<path fill="#503F3E" opacity="1.000000" stroke="none" 
	d="
M354.905975,247.711609 
	C356.659485,247.336334 358.413025,246.961044 360.166534,246.585754 
	C360.555878,247.057922 360.945221,247.530075 361.334595,248.002228 
	C352.056488,251.310898 351.861694,260.134308 349.224060,267.828522 
	C344.213593,264.216095 346.455872,260.373627 346.831116,256.054626 
	C346.889160,250.689743 347.581543,246.872437 353.741455,248.571030 
	C354.028778,248.650253 354.513275,248.014404 354.905975,247.711609 
z"/>
<path fill="#ED5D0A" opacity="1.000000" stroke="none" 
	d="
M354.857941,247.259552 
	C354.513275,248.014404 354.028778,248.650253 353.741455,248.571030 
	C347.581543,246.872437 346.889160,250.689743 346.817657,255.659302 
	C344.170135,256.043243 341.612305,256.025055 338.628143,256.000732 
	C338.436523,254.052444 338.867340,252.109482 338.859711,250.168274 
	C338.848389,247.287506 340.068970,246.091354 342.942871,245.879776 
	C344.485657,245.766190 345.963318,244.767639 347.800873,243.970779 
	C350.304718,244.900879 354.568176,241.428391 354.857941,247.259552 
z"/>
<path fill="#F67B2C" opacity="1.000000" stroke="none" 
	d="
M87.263916,206.030518 
	C90.160934,205.386993 93.038666,204.399902 95.962616,204.235687 
	C97.577888,204.144974 99.270645,205.433762 100.928474,206.100677 
	C100.727180,206.513626 100.525887,206.926559 100.324585,207.339508 
	C93.170143,210.282455 86.015694,213.225418 78.483673,216.191208 
	C79.696037,213.758362 81.285965,211.302689 82.654251,208.437531 
	C82.432610,208.028061 82.419350,208.019653 82.783966,208.358734 
	C83.762840,208.102325 84.377106,207.506851 84.991364,206.911377 
	C84.991364,206.911377 84.990997,206.985596 85.284744,207.128418 
	C86.140289,206.857666 86.702103,206.444092 87.263916,206.030518 
z"/>
<path fill="#514141" opacity="1.000000" stroke="none" 
	d="
M224.876755,274.849670 
	C224.187424,276.544922 223.595184,277.856812 222.275818,280.779480 
	C220.708679,277.408508 218.695984,275.127106 218.962006,273.152771 
	C219.325745,270.453308 221.312119,267.915253 222.891754,265.496674 
	C223.137466,265.120453 225.182770,265.419067 225.910629,266.006714 
	C226.567001,266.536652 226.936890,267.963043 226.764175,268.866089 
	C226.398697,270.777100 225.596786,272.604584 224.876755,274.849670 
z"/>
<path fill="#EC5B07" opacity="1.000000" stroke="none" 
	d="
M325.786865,247.226288 
	C328.338959,246.956604 330.807129,247.164932 333.929749,247.428497 
	C333.627319,250.089798 333.338776,252.628799 332.969360,255.572083 
	C330.757874,255.976395 328.627258,255.976395 325.702942,255.976395 
	C325.702942,253.140198 325.702942,250.422256 325.786865,247.226288 
z"/>
<path fill="#534444" opacity="1.000000" stroke="none" 
	d="
M421.362610,246.966049 
	C417.836334,245.597275 418.232391,242.672028 422.700500,238.207581 
	C423.197266,238.348923 423.287598,238.394089 423.377960,238.439255 
	C423.266174,238.282532 423.154358,238.125824 423.042542,237.969116 
	C423.190643,237.117416 423.338776,236.265717 423.636444,234.554031 
	C424.658875,236.113358 425.213043,236.958527 426.070923,237.985046 
	C424.801300,241.039185 423.227905,243.912018 421.362610,246.966049 
z"/>
<path fill="#534444" opacity="1.000000" stroke="none" 
	d="
M400.044403,251.776672 
	C399.898010,251.418579 399.776703,251.032028 399.655426,250.645477 
	C399.961212,250.843704 400.266968,251.041946 400.384491,251.538727 
	C400.196228,251.837280 400.069489,251.748230 400.044403,251.776672 
z"/>
<path fill="#534444" opacity="1.000000" stroke="none" 
	d="
M424.340515,256.879089 
	C424.485168,256.562103 424.950348,256.294525 425.696014,256.013092 
	C425.538025,256.308990 425.099548,256.618713 424.340515,256.879089 
z"/>
<path fill="#F67B2C" opacity="1.000000" stroke="none" 
	d="
M77.971100,216.172440 
	C78.245369,216.468475 78.113136,216.722183 77.578285,216.933136 
	C77.295715,216.634171 77.425362,216.380737 77.971100,216.172440 
z"/>
<path fill="#F37829" opacity="1.000000" stroke="none" 
	d="
M157.209885,221.737335 
	C156.924133,221.890961 156.506180,221.753448 156.049194,221.281677 
	C156.366013,221.113678 156.721832,221.279938 157.209885,221.737335 
z"/>
<path fill="#DDD9D9" opacity="1.000000" stroke="none" 
	d="
M117.922607,173.065262 
	C118.245903,170.182098 118.566597,167.756577 119.061234,164.015503 
	C122.317184,170.988190 120.281639,176.226990 118.374275,182.228943 
	C118.196068,178.813599 118.058037,176.168243 117.922607,173.065262 
z"/>
<path fill="#FFFFFF" opacity="1.000000" stroke="none" 
	d="
M131.352264,165.383575 
	C131.292892,166.327713 130.958969,166.991272 130.138245,168.622192 
	C130.138245,166.754501 130.138245,165.934982 130.321625,164.840698 
	C130.695908,164.744965 130.886826,164.923981 131.352264,165.383575 
z"/>
<path fill="#FFFFFF" opacity="1.000000" stroke="none" 
	d="
M150.117889,162.503571 
	C149.614868,162.285889 149.442963,161.804382 149.271042,161.322876 
	C149.534866,161.251022 149.994461,161.065231 150.029984,161.126251 
	C150.226669,161.464218 150.320145,161.862244 150.117889,162.503571 
z"/>
<path fill="#FFFFFF" opacity="1.000000" stroke="none" 
	d="
M84.636406,206.747498 
	C84.377106,207.506851 83.762840,208.102325 82.807083,208.368317 
	C83.070877,207.553757 83.676163,207.068680 84.636406,206.747498 
z"/>
<path fill="#FFFFFF" opacity="1.000000" stroke="none" 
	d="
M103.385040,197.585434 
	C104.086319,197.732773 104.593948,198.081787 105.782059,198.898682 
	C104.372528,198.814011 103.773315,198.778000 102.995163,198.471909 
	C102.941292,198.063568 103.066345,197.925339 103.385040,197.585434 
z"/>
<path fill="#FFFFFF" opacity="1.000000" stroke="none" 
	d="
M86.883606,205.944885 
	C86.702103,206.444092 86.140289,206.857666 85.255951,207.104996 
	C85.456703,206.578918 85.979996,206.219086 86.883606,205.944885 
z"/>
<path fill="#FFFFFF" opacity="1.000000" stroke="none" 
	d="
M102.463051,159.674255 
	C102.957504,159.676178 103.173470,159.882950 103.308609,160.445602 
	C103.246574,160.781860 102.907837,161.098892 102.907837,161.098892 
	C102.587402,160.980835 102.266975,160.862778 101.832718,160.509674 
	C101.880371,160.136261 102.041855,159.997879 102.463051,159.674255 
z"/>
<path fill="#FFFFFF" opacity="1.000000" stroke="none" 
	d="
M103.427284,160.636414 
	C103.812973,160.853165 104.017952,161.215347 104.222931,161.577530 
	C103.856796,161.614792 103.490662,161.652054 103.016182,161.394104 
	C102.907837,161.098892 103.246574,160.781860 103.427284,160.636414 
z"/>
<path fill="#FFFFFF" opacity="1.000000" stroke="none" 
	d="
M94.010452,168.989258 
	C94.128357,169.241547 94.274376,169.475266 94.420395,169.708984 
	C94.203705,169.592438 93.987015,169.475891 93.933670,169.148224 
	C94.097015,168.937134 94.038574,168.970688 94.010452,168.989258 
z"/>
<path fill="#FEF3ED" opacity="1.000000" stroke="none" 
	d="
M305.832092,219.191895 
	C305.845154,221.940475 305.845154,224.221024 305.845154,226.774597 
	C304.234100,226.774597 302.689636,226.774597 300.636139,226.774597 
	C301.336060,216.240860 302.018616,205.968384 302.701172,195.695892 
	C303.052490,195.685791 303.403809,195.675690 303.755127,195.665588 
	C304.443115,203.351685 305.131073,211.037766 305.832092,219.191895 
z"/>
<path fill="#F9EFEA" opacity="1.000000" stroke="none" 
	d="
M307.385040,239.617477 
	C304.860016,242.345535 302.242401,244.643005 299.277893,246.983856 
	C298.930969,244.260925 298.930969,241.494644 298.930969,237.603851 
	C302.282166,238.238327 304.787323,238.712616 307.385040,239.617477 
z"/>
<path fill="#FEF2EB" opacity="1.000000" stroke="none" 
	d="
M219.007812,201.040894 
	C219.711029,209.753723 220.412811,218.019547 221.148651,226.686432 
	C219.139481,226.686432 217.446777,226.686432 215.298035,226.686432 
	C216.041397,216.212677 216.777451,205.841797 217.513504,195.470917 
	C218.011124,195.483902 218.508743,195.496887 219.006363,195.509857 
	C219.006363,197.204529 219.006363,198.899200 219.007812,201.040894 
z"/>
<path fill="#F37227" opacity="1.000000" stroke="none" 
	d="
M232.096039,243.392517 
	C232.694397,244.417587 233.032394,245.308334 233.725601,247.135178 
	C231.147339,245.760300 229.746063,245.013062 228.261917,244.221634 
	C228.702621,241.097534 229.975510,241.152222 232.096039,243.392517 
z"/>
<path fill="#F37227" opacity="1.000000" stroke="none" 
	d="
M228.767242,251.868103 
	C228.216660,250.252533 227.993011,248.607376 227.769348,246.962234 
	C229.774155,248.425018 233.815781,249.562424 228.767242,251.868103 
z"/>
<path fill="#F37227" opacity="1.000000" stroke="none" 
	d="
M226.957718,247.367447 
	C226.121628,246.601379 225.310822,245.521637 224.500015,244.441895 
	C225.023865,244.145752 225.547699,243.849609 226.071533,243.553452 
	C226.375351,244.720230 226.679184,245.886993 226.957718,247.367447 
z"/>
<path fill="#DDD9D9" opacity="1.000000" stroke="none" 
	d="
M210.223114,225.363007 
	C210.029343,225.819916 209.600052,226.152771 209.170776,226.485626 
	C208.975235,226.116791 208.779694,225.747955 208.584152,225.379120 
	C209.051971,225.332382 209.519775,225.285660 210.223114,225.363007 
z"/>
<path fill="#EBE9E9" opacity="1.000000" stroke="none" 
	d="
M237.854523,281.571472 
	C235.835159,285.987274 233.648727,290.076141 231.462296,294.164978 
	C230.868942,293.825836 230.275589,293.486694 229.682236,293.147552 
	C231.933502,288.935150 232.981583,284.016937 237.854523,281.571472 
z"/>
<path fill="#FFFFFF" opacity="1.000000" stroke="none" 
	d="
M257.345917,264.545532 
	C257.342316,263.860382 257.638184,263.449402 257.934052,263.038391 
	C257.837830,263.632172 257.741608,264.225952 257.345917,264.545532 
z"/>
<path fill="#534444" opacity="1.000000" stroke="none" 
	d="
M401.977966,246.982941 
	C402.670990,246.386719 403.364044,245.790497 404.057068,245.194290 
	C404.252533,245.484009 404.447968,245.773727 404.643402,246.063446 
	C403.986572,246.378387 403.329773,246.693314 402.336792,247.004761 
	C402.000641,247.001297 401.977966,246.982941 401.977966,246.982941 
z"/>
<path fill="#FFFFFF" opacity="1.000000" stroke="none" 
	d="
M394.633881,248.792404 
	C394.351135,248.786209 394.285126,248.574982 394.219147,248.363739 
	C394.429657,248.438278 394.640137,248.512817 394.633881,248.792404 
z"/>
<path fill="#534444" opacity="1.000000" stroke="none" 
	d="
M402.009827,247.012787 
	C401.914276,247.051514 401.809540,247.078735 401.841400,247.044434 
	C401.977966,246.982941 402.000641,247.001297 402.009827,247.012787 
z"/>
<path fill="#534444" opacity="1.000000" stroke="none" 
	d="
M398.464172,244.439697 
	C398.523956,244.402023 398.404419,244.477386 398.464172,244.439697 
z"/>
<path fill="#FFFFFF" opacity="1.000000" stroke="none" 
	d="
M307.196350,259.320923 
	C307.026337,259.426941 306.542725,259.247406 306.114807,258.821289 
	C306.407898,258.728241 306.645325,258.881775 307.196350,259.320923 
z"/>
<path fill="#4F4040" opacity="1.000000" stroke="none" 
	d="
M423.023010,237.985260 
	C423.154358,238.125824 423.266174,238.282532 423.377960,238.439255 
	C423.287598,238.394089 423.197266,238.348923 423.038940,238.172058 
	C422.971008,238.040359 423.003479,238.001419 423.023010,237.985260 
z"/>
</svg>